<svg id="Слой_1" data-name="Слой 1" xmlns="http://www.w3.org/2000/svg" viewBox="0 0 500 190.22"><path d="M0,.07H98.29V125.9H69.84v-102H28.45v102H0Z"/><path d="M144.81,125.9H117.39V30.12h27.42V82.77l34.31-52.65H205V125.9H179.12V73Z"/><path d="M305.61,78c0-31.84,22.42-50.24,46.66-50.24S398.92,46.2,398.92,78s-22.42,50.18-46.65,50.18S305.61,109.82,305.61,78Zm64.23,0c0-16.57-5.83-27.33-17.57-27.33S334.7,61.47,334.7,78s5.83,27.28,17.57,27.28S369.84,94.62,369.84,78Z"/><path d="M412.57,30.12H441V64.69h30.67V30.12H500V125.9H471.62V89.5H441v36.4H412.57Z"/><polygon points="302.28 0.07 217.39 0.07 217.39 54.1 233.51 54.1 233.51 125.9 247.7 125.9 247.7 54.1 252.74 54.1 252.74 125.9 266.93 125.9 266.93 54.1 271.97 54.1 271.97 125.9 286.16 125.9 286.16 54.1 302.28 54.1 302.28 0.07"/><path d="M71,171.59,75,176a16,16,0,0,1-5.89,4.15,18.22,18.22,0,0,1-7.18,1.53,16.46,16.46,0,0,1-12.16-5,17.74,17.74,0,0,1,0-24.61,16.45,16.45,0,0,1,12.16-5A18.11,18.11,0,0,1,69,148.51a17.75,17.75,0,0,1,6,4.15l-4.11,4.53q-3.95-4.58-9-4.58A10.08,10.08,0,0,0,54,156.05a12.77,12.77,0,0,0,0,16.59,10.08,10.08,0,0,0,7.91,3.44Q67,176.08,71,171.59Z"/><path d="M101.65,170.88H83.44a6.61,6.61,0,0,0,2.33,4.05,7.27,7.27,0,0,0,4.63,1.43,10.89,10.89,0,0,0,3.53-.5A14.57,14.57,0,0,0,97.36,174l2.77,4a15.15,15.15,0,0,1-4.58,2.72,16,16,0,0,1-5.34.81A12.38,12.38,0,0,1,81,177.84a13.48,13.48,0,0,1,0-18.48,12.07,12.07,0,0,1,9-3.74,10.55,10.55,0,0,1,8.61,3.72,14.16,14.16,0,0,1,3.07,9.34Zm-18.26-4.29h12.4a7.32,7.32,0,0,0-1.7-4.18A5.09,5.09,0,0,0,90,160.72a6.47,6.47,0,0,0-4.37,1.55A7.08,7.08,0,0,0,83.39,166.59Z"/><path d="M112.57,190.19h-6V156.14h3.81l1,3.72a11.33,11.33,0,0,1,9.3-4.24,10.39,10.39,0,0,1,8.2,3.74,14.77,14.77,0,0,1,0,18.46,10.39,10.39,0,0,1-8.2,3.74,9.91,9.91,0,0,1-4.93-1.19,9.76,9.76,0,0,1-3.27-2.82Zm6.72-14.07a6.31,6.31,0,0,0,5-2.14,8.59,8.59,0,0,0,0-10.8,6.34,6.34,0,0,0-5-2.13,6.2,6.2,0,0,0-4.86,2.17,8.49,8.49,0,0,0,0,10.73A6.17,6.17,0,0,0,119.29,176.12Z"/><path d="M149.76,181H137.17v-24.9h11.69a11.64,11.64,0,0,1,6.27,1.65,5.64,5.64,0,0,1,2.64,5.17,5.71,5.71,0,0,1-3.24,5.34v0a6,6,0,0,1,4.15,5.91,5.67,5.67,0,0,1-2.5,5.15A11.54,11.54,0,0,1,149.76,181Zm-7-20.13v5.39h5a5.68,5.68,0,0,0,3.12-.64,2.35,2.35,0,0,0,.93-2.08q0-2.67-4.24-2.67Zm0,9.78v5.53h5.68a6,6,0,0,0,3.24-.67,2.33,2.33,0,0,0,1-2.1q0-2.76-4.1-2.76Z"/><path d="M169.32,181h-5.48v-24.9h6v14.45h0l10.54-14.45h5.48V181h-6V166.59h0Z"/><path d="M209.57,172.83l4.29,4.06a13,13,0,0,1-10.11,4.67,12.45,12.45,0,0,1-9.23-3.74,13.36,13.36,0,0,1,0-18.46,13.24,13.24,0,0,1,19.24.84l-4.15,4a7.47,7.47,0,0,0-5.86-3.15,6.42,6.42,0,0,0-5,2.13,8.42,8.42,0,0,0,0,10.8,6.4,6.4,0,0,0,5,2.14A6.78,6.78,0,0,0,209.57,172.83Z"/><path d="M223.88,181h-6v-24.9h6v9.68h9.72v-9.68h6V181h-6v-9.88h-9.72Z"/><path d="M257.55,181h-11.4v-24.9h6v7.54h5.44a10.11,10.11,0,0,1,6.58,2.24,8.88,8.88,0,0,1,0,12.87A10.12,10.12,0,0,1,257.55,181ZM252.11,169v6.77h5a3.82,3.82,0,0,0,2.81-1,3.57,3.57,0,0,0,0-4.87,3.82,3.82,0,0,0-2.81-.95Zm25,12.11h-5.92V156.14h5.92Z"/><path d="M289.21,181h-5.48v-24.9h6v14.45h.05l10.54-14.45h5.48V181h-6V166.59h-.05ZM287,146.61l3.58-1.86a10.31,10.31,0,0,0,1.79,3.17,3.41,3.41,0,0,0,2.5.83,3.45,3.45,0,0,0,2.53-.81,10.71,10.71,0,0,0,1.81-3.19l3.58,1.9a11.74,11.74,0,0,1-3,4.72,8.82,8.82,0,0,1-9.78,0A11.43,11.43,0,0,1,287,146.61Z"/><path d="M342.53,181h-19.7v-24.9h6v19.55h9.73V156.14h6v19.55h4V188h-6Z"/><path d="M375,170.88H356.75a6.56,6.56,0,0,0,2.33,4.05,7.27,7.27,0,0,0,4.63,1.43,10.93,10.93,0,0,0,3.53-.5,14.57,14.57,0,0,0,3.43-1.83l2.77,4a15.27,15.27,0,0,1-4.58,2.72,16,16,0,0,1-5.34.81,12.38,12.38,0,0,1-9.23-3.72,13.49,13.49,0,0,1,0-18.48,12.11,12.11,0,0,1,9-3.74,10.55,10.55,0,0,1,8.61,3.72,14.16,14.16,0,0,1,3.07,9.34Zm-18.26-4.29h12.4a7.32,7.32,0,0,0-1.7-4.18,5.11,5.11,0,0,0-4.07-1.69,6.47,6.47,0,0,0-4.37,1.55A7.08,7.08,0,0,0,356.7,166.59Z"/><path d="M385.88,181h-6v-24.9h6v9.68h9.73v-9.68h6V181h-6v-9.88h-9.73Z"/><path d="M418.93,181h-6V161.48h-7.48v-5.34h20.93v5.34h-7.49Z"/><path d="M436.3,190.19h-6V156.14h3.81l1.05,3.72a11.33,11.33,0,0,1,9.3-4.24,10.39,10.39,0,0,1,8.2,3.74,14.73,14.73,0,0,1,0,18.46,10.39,10.39,0,0,1-8.2,3.74,9.94,9.94,0,0,1-4.93-1.19,9.76,9.76,0,0,1-3.27-2.82ZM443,176.12a6.31,6.31,0,0,0,5-2.14,8.59,8.59,0,0,0,0-10.8,6.34,6.34,0,0,0-5-2.13,6.2,6.2,0,0,0-4.86,2.17,8.49,8.49,0,0,0,0,10.73A6.17,6.17,0,0,0,443,176.12Z"/></svg>